<svg xmlns="http://www.w3.org/2000/svg" xmlns:xlink="http://www.w3.org/1999/xlink" width="135" height="22" viewBox="0 0 135 22"><defs><path id="b" d="M31.76 35.64c-.03 0-.03 0 0 0l-11.63-.03a4.1 4.1 0 0 1 0-8.2h11.63a2.46 2.46 0 1 1 0 4.91H19.28V30.7h12.48a.82.82 0 0 0 .82-.84.81.81 0 0 0-.82-.81H20.13a2.48 2.48 0 0 0-2.47 2.47 2.48 2.48 0 0 0 2.47 2.47l11.63.03a4 4 0 0 0 2.9-1.2 4.1 4.1 0 0 0-2.9-7l-5.03-.06-5-.03a5.75 5.75 0 0 1 .03-11.51l11.63.03a4.1 4.1 0 0 1 0 8.2H21.76a2.46 2.46 0 1 1 0-4.91h12.47v1.62H21.76a.82.82 0 0 0-.82.85c0 .45.36.81.82.81h11.63a2.48 2.48 0 0 0 2.47-2.47 2.48 2.48 0 0 0-2.47-2.47l-11.63-.03a4 4 0 0 0-2.9 1.2 4.1 4.1 0 0 0 2.9 7l5.03.02v.07l4.97.03a5.75 5.75 0 0 1 0 11.48z"/><path id="c" d="M46.72 31.93c-2.55 0-4.4-1.22-5.1-3.25l1.87-1.1c.53 1.5 1.62 2.24 3.29 2.24 1.64 0 2.45-.7 2.45-1.74 0-.55-.22-.94-.66-1.23-.43-.28-1.23-.6-2.34-.94a8.98 8.98 0 0 1-2.78-1.21 3.04 3.04 0 0 1-1.28-2.66c0-1.18.41-2.1 1.24-2.78a4.5 4.5 0 0 1 3-1.04 4.9 4.9 0 0 1 4.62 2.9l-1.84 1.07c-.54-1.23-1.47-1.85-2.77-1.85-1.27 0-2.08.64-2.08 1.64 0 .98.64 1.43 2.66 2.06.51.17.87.28 1.1.38.24.07.57.2.98.37.44.17.76.36.96.53.7.55 1.46 1.46 1.36 2.72 0 1.2-.43 2.16-1.3 2.85a5.16 5.16 0 0 1-3.38 1.04zm11.06-9.69v1.97h-2.35v4.53c0 1.21.8 1.2 2.35 1.12v1.83c-3.12.38-4.39-.47-4.39-2.95v-4.53h-1.74v-1.97h1.74V20.2l2.04-.6v2.64zm8.6 1.34v-1.34h2.03v9.45h-2.04v-1.36a3.81 3.81 0 0 1-3.3 1.6c-1.3 0-2.4-.47-3.33-1.43a4.92 4.92 0 0 1-1.37-3.53c0-1.4.45-2.57 1.37-3.54A4.42 4.42 0 0 1 63.07 22c1.43 0 2.53.53 3.3 1.58zm-5.12 5.56a2.9 2.9 0 0 0 2.13.85 2.9 2.9 0 0 0 2.98-3.02 2.92 2.92 0 0 0-2.98-3.03 2.92 2.92 0 0 0-2.98 3.02 3 3 0 0 0 .85 2.18zm11.22-6.9v1.59c.51-1.17 1.5-1.76 2.9-1.76v2.21a2.95 2.95 0 0 0-2.03.57c-.59.42-.87 1.11-.87 2.08v4.76h-2.04v-9.45zm9.58 0v1.97h-2.34v4.53c0 1.21.8 1.2 2.34 1.12v1.83c-3.11.38-4.38-.47-4.38-2.95v-4.53h-1.74v-1.97h1.74V20.2l2.04-.6v2.64zm9.5 2.6c1.16.6 1.86 1.7 1.86 3.07 0 1.08-.38 1.98-1.15 2.7a3.97 3.97 0 0 1-2.82 1.08H83.8V18.47h5.25c1.07 0 2 .35 2.74 1.05a3.4 3.4 0 0 1 1.13 2.61c0 1.15-.45 2.04-1.34 2.7zm-2.52-4.33h-3.08v3.47h3.08c.96 0 1.7-.75 1.7-1.74 0-.98-.74-1.73-1.7-1.73zm-3.08 9.14h3.5c1 0 1.79-.81 1.79-1.85a1.8 1.8 0 0 0-1.8-1.85h-3.5zm13.41 2.28a4.82 4.82 0 0 1-3.53-1.43 4.8 4.8 0 0 1-1.45-3.53c0-1.4.49-2.57 1.45-3.54A4.82 4.82 0 0 1 99.37 22c1.4 0 2.57.47 3.54 1.43a4.8 4.8 0 0 1 1.45 3.54c0 1.4-.49 2.56-1.45 3.53a4.79 4.79 0 0 1-3.54 1.43zm-2.1-2.83c.57.57 1.27.85 2.1.85a2.9 2.9 0 0 0 2.95-2.98 2.9 2.9 0 0 0-2.95-2.99 2.9 2.9 0 0 0-2.95 2.98c0 .86.3 1.57.86 2.14zm13.05 2.83a4.82 4.82 0 0 1-3.54-1.43 4.8 4.8 0 0 1-1.45-3.53c0-1.4.49-2.57 1.45-3.54a4.82 4.82 0 0 1 3.54-1.43c1.4 0 2.56.47 3.53 1.43a4.8 4.8 0 0 1 1.45 3.54c0 1.4-.49 2.56-1.45 3.53a4.79 4.79 0 0 1-3.53 1.43zm-2.1-2.83c.57.57 1.26.85 2.1.85a2.9 2.9 0 0 0 2.95-2.98 2.9 2.9 0 0 0-2.95-2.99 2.9 2.9 0 0 0-2.95 2.98c0 .86.28 1.57.85 2.14zm12.62-2.23l4.3 4.82h-2.43l-3.87-4.37v4.37h-2.04V18.47h2.04v7.95l3.66-4.18h2.5zm7.26-6.42c-.51.5-1.3.5-1.83 0a1.29 1.29 0 0 1 0-1.83 1.28 1.28 0 0 1 1.85 0c.5.5.5 1.3-.02 1.83zm.11 11.24h-2.04v-9.45h2.04zm6.98-9.7c2.17 0 3.62 1.48 3.62 3.9v5.8h-2.04v-5.6c0-1.41-.8-2.18-2.11-2.18-1.44 0-2.4.88-2.4 2.72v5.06h-2.04v-9.45h2.04v1.21c.62-.96 1.59-1.45 2.93-1.45zm12.98 1.65v-1.4h2v9.01c0 1.44-.47 2.53-1.41 3.3a5.25 5.25 0 0 1-3.44 1.16c-2.17 0-3.67-.75-4.48-2.28l1.76-1.02c.49.96 1.41 1.45 2.76 1.45 1.75 0 2.81-.96 2.81-2.6V30.1a3.79 3.79 0 0 1-3.29 1.64 4.8 4.8 0 0 1-4.76-4.87c0-1.34.46-2.5 1.38-3.44a4.48 4.48 0 0 1 3.38-1.43c1.42 0 2.52.55 3.29 1.64zM143.01 29c.59.56 1.3.85 2.16.85a2.9 2.9 0 0 0 2.13-.85 2.8 2.8 0 0 0 .87-2.12 2.8 2.8 0 0 0-.87-2.11 2.9 2.9 0 0 0-2.13-.85c-.85 0-1.57.28-2.16.85a2.86 2.86 0 0 0-.85 2.11c0 .85.29 1.55.85 2.12z"/><linearGradient id="a" x1="37.49" x2="18.41" y1="14.21" y2="33.7" gradientUnits="userSpaceOnUse"><stop offset="0" stop-color="#2099ff"/><stop offset="1" stop-color="#0561c7"/></linearGradient></defs><use fill="url(#a)" xlink:href="#b" transform="translate(-16 -14)"/><use fill="#3f3f3f" xlink:href="#c" transform="translate(-16 -14)"/></svg>